<?xml version="1.0" encoding="UTF-8" standalone="no"?>
<!-- Created with Inkscape (http://www.inkscape.org/) -->

<svg
   version="1.1"
   id="svg1"
   width="500"
   height="500"
   viewBox="0 0 500 500"
   sodipodi:docname="eyes_logo.svg"
   inkscape:version="1.4 (86a8ad7, 2024-10-11)"
   inkscape:export-filename="eyes_logo.png"
   inkscape:export-xdpi="96"
   inkscape:export-ydpi="96"
   xmlns:inkscape="http://www.inkscape.org/namespaces/inkscape"
   xmlns:sodipodi="http://sodipodi.sourceforge.net/DTD/sodipodi-0.dtd"
   xmlns="http://www.w3.org/2000/svg"
   xmlns:svg="http://www.w3.org/2000/svg">
  <defs
     id="defs1" />
  <sodipodi:namedview
     id="namedview1"
     pagecolor="#ffffff"
     bordercolor="#000000"
     borderopacity="0.25"
     inkscape:showpageshadow="2"
     inkscape:pageopacity="0.0"
     inkscape:pagecheckerboard="0"
     inkscape:deskcolor="#d1d1d1"
     inkscape:zoom="2"
     inkscape:cx="226.25"
     inkscape:cy="244.25"
     inkscape:window-width="1920"
     inkscape:window-height="1009"
     inkscape:window-x="1912"
     inkscape:window-y="-8"
     inkscape:window-maximized="1"
     inkscape:current-layer="g1" />
  <g
     inkscape:groupmode="layer"
     inkscape:label="Image"
     id="g1">
    <g
       id="g5"
       transform="matrix(1.2368672,0,0,1.172487,-5.779839,-55.69844)">
      <path
         style="fill:#000d43;fill-opacity:1;stroke:none;stroke-width:0.891067"
         d="m 140.99069,273.6767 c -2.22837,-18.14357 3.39472,-40.01337 11.5691,-60.22388 3.25703,-14.78495 11.08307,-30.99804 2.99939,-47.25259 7.47956,6.82285 13.94439,13.56044 14.5685,16.67739 5.06364,4.81368 6.04247,0.54442 7.71272,0.46324 7.62683,-6.59829 10.03097,-55.09727 -2.03992,-62.88746 -4.04552,-2.8586 18.14155,8.30131 25.91696,19.39503 15.93961,19.33935 18.26909,36.62558 16.1886,31.67464 5.02208,-7.53953 4.11518,-17.85331 3.53028,-28.85687 189.79028,162.67923 -58.83811,306.94117 -80.44563,131.0105 z"
         id="path1-2"
         sodipodi:nodetypes="sccccccccs" />
      <path
         style="fill:#3cacfe;fill-opacity:1;stroke:none;stroke-width:0.900737"
         d="m 145.42456,276.58086 c -2.25771,-18.29857 3.43942,-40.35521 11.72144,-60.73838 3.29991,-14.91125 11.229,-31.26285 3.03888,-47.65627 7.57805,6.88114 14.128,13.67629 14.76033,16.81987 5.13032,4.8548 6.12204,0.54907 7.81428,0.4672 7.72726,-6.65466 10.16305,-55.56797 -2.06678,-63.42472 -4.09879,-2.88302 18.38043,8.37223 26.25822,19.56073 16.1495,19.50456 18.50965,36.93847 16.40176,31.94524 5.08821,-7.60394 4.16937,-18.00584 3.57677,-29.1034 192.28937,164.06901 -59.61286,309.56339 -81.5049,132.12973 z"
         id="path1"
         sodipodi:nodetypes="sccccccccs" />
      <path
         style="fill:#abfffe;fill-opacity:1;stroke:none;stroke-width:0.709034"
         d="m 172.38207,269.63201 c -6.15552,-52.3375 18.94048,-36.6347 0.34402,-75.39237 50.4661,32.65277 10.57666,-77.81964 22.33475,-54.35174 4.97252,9.92463 18.05068,39.49147 47.59269,64.64514 3.91052,-6.13061 -5.17558,-15.51705 -5.63103,-24.46437 157.18369,119.37529 -47.8155,232.61788 -64.64043,89.56334 z"
         id="path1-1"
         sodipodi:nodetypes="scsccs" />
      <path
         style="fill:#3cacfe;fill-opacity:1;stroke:none"
         id="path2"
         sodipodi:type="arc"
         sodipodi:cx="239"
         sodipodi:cy="258"
         sodipodi:rx="2"
         sodipodi:ry="15"
         sodipodi:start="0"
         sodipodi:end="0.016665124"
         sodipodi:arc-type="slice"
         d="m 241,258 a 2,15 0 0 1 -2.8e-4,0.24997 L 239,258 Z" />
      <path
         style="fill:#000d43;fill-opacity:1;stroke:none;stroke-width:0.604345"
         id="path4"
         sodipodi:type="arc"
         sodipodi:cx="228"
         sodipodi:cy="263"
         sodipodi:rx="13"
         sodipodi:ry="20"
         sodipodi:start="0"
         sodipodi:end="6.0122856"
         sodipodi:arc-type="arc"
         d="m 241,263 a 13,20 0 0 1 -12.12025,19.95415 13,20 0 0 1 -13.76068,-17.25343 13,20 0 0 1 10.25779,-22.28934 13,20 0 0 1 15.14904,14.23665"
         sodipodi:open="true" />
      <path
         style="fill:#000d43;fill-opacity:1;stroke:none;stroke-width:0.516285"
         id="path4-8"
         sodipodi:type="arc"
         sodipodi:cx="260"
         sodipodi:cy="263.25"
         sodipodi:rx="11"
         sodipodi:ry="17.25"
         sodipodi:start="0"
         sodipodi:end="6.0122856"
         sodipodi:arc-type="arc"
         d="m 271,263.25 a 11,17.25 0 0 1 -10.2556,17.21046 11,17.25 0 0 1 -11.64365,-14.88109 11,17.25 0 0 1 8.67967,-19.22455 11,17.25 0 0 1 12.81842,12.27911"
         sodipodi:open="true" />
    </g>
  </g>
</svg>
